<svg xmlns="http://www.w3.org/2000/svg" xml:space="preserve" viewBox="0 0 956 980"><path d="M1 476V1h956v476l-1 27 1 2v475H1a183464 183464 0 0 1 1-503l-1-2m140 323a476 476 0 0 0 193 131c17 6 33-2 33-23l-1-73v-4c-23 5-47 7-70 3-27-5-49-16-66-37-9-12-14-25-20-38-11-24-25-45-48-59l-12-11c-6-7-5-13 5-15 15-4 29 1 42 8 18 9 31 24 41 41 12 21 29 38 54 45s50 2 74-8l2-4c4-22 11-42 28-59l-5-1c-19-4-38-6-57-11a175 175 0 0 1-129-118 318 318 0 0 1-13-127c5-35 18-66 41-92 3-4 3-7 2-10-12-39-8-77 6-115l4-3c17-2 33 3 48 9 25 9 48 22 69 37 3 1 5 2 8 1a427 427 0 0 1 219 0c2 1 5 0 6-1 22-15 45-28 70-38 15-5 31-9 47-8 3 0 5 1 6 4 14 39 17 79 3 119 29 33 45 71 46 115 1 36-2 72-13 106-12 38-33 69-66 91-27 19-58 30-91 36l-34 6 16 24c11 21 13 43 13 67l-1 121c0 17 13 28 29 23a447 447 0 0 0 276-260 464 464 0 0 0 29-259A463 463 0 0 0 514 29 446 446 0 0 0 65 304a468 468 0 0 0 7 389c18 38 41 73 69 106z"/><path fill="#B1B1B1" d="m1 476 1 2-1 28v-30zm956 30-1-2 1-27v29z"/><path fill="#FFF" d="M141 799A469 469 0 0 1 421 31a446 446 0 0 1 454 235 463 463 0 0 1 55 256 464 464 0 0 1-310 409c-16 5-29-6-29-23l1-121c0-24-2-46-13-67l-16-24 34-6c33-6 64-17 91-36 33-22 54-53 66-91 11-34 14-70 13-106-1-44-17-82-46-115 14-40 11-80-3-119-1-3-3-4-6-4-16-1-32 3-47 8-25 10-48 23-70 38-1 1-4 2-6 1a427 427 0 0 0-219 0c-3 1-5 0-8-1-21-15-44-28-69-37-15-6-31-11-48-9l-4 3c-14 38-18 76-6 115 1 3 1 6-2 10-23 26-36 57-41 92a318 318 0 0 0 13 127 175 175 0 0 0 129 118c19 5 38 7 57 11l5 1c-17 17-24 37-28 59l-2 4c-24 10-49 15-74 8s-42-24-54-45c-10-17-23-32-41-41-13-7-27-12-42-8-10 2-11 8-5 15l12 11c23 14 37 35 48 59 6 13 11 26 20 38 17 21 39 32 66 37 23 4 47 2 70-3v4l1 73c0 21-16 29-33 23a440 440 0 0 1-193-131z"/></svg>